<svg id="Layer_1" data-name="Layer 1" xmlns="http://www.w3.org/2000/svg" viewBox="0 0 122.04 23.73"><defs><style>.cls-1{fill:#f7b710;}.cls-2{fill:#efb210;}.cls-3{fill:#020202;}.cls-4{fill:#030303;}.cls-5{fill:#050505;}.cls-6{fill:#040404;}.cls-7{fill:#070707;}.cls-8{fill:#0a0a0a;}.cls-9{fill:#f6f6f6;}.cls-10{fill:#f3f3f3;}</style></defs><path class="cls-1" d="M919,554.41H895.29V530.77a5.7,5.7,0,0,1,.75-.09h22.05a4.75,4.75,0,0,1,.9.17Q919,542.63,919,554.41Z" transform="translate(-895.29 -530.68)"/><path class="cls-2" d="M919,554.41q0-11.77,0-23.56,4.2,6.63,8.39,13.27c2.12,3.37,4.23,6.76,6.44,10.29Z" transform="translate(-895.29 -530.68)"/><path class="cls-3" d="M949.92,535.26h3.76v3.55c0,1.24,0,2.48,0,3.72a4.79,4.79,0,0,1-5,5.09,16.88,16.88,0,0,1-2.25-.12,4.57,4.57,0,0,1-4.49-4.9c0-2.41,0-4.81,0-7.3h3.79v5.5c0,.59,0,1.17,0,1.76.09,1.48.83,2.21,2.17,2.17s2-.77,2-2.23c0-2.17,0-4.33,0-6.5C949.88,535.76,949.91,535.53,949.92,535.26Z" transform="translate(-895.29 -530.68)"/><path class="cls-4" d="M979.5,541.26a5.32,5.32,0,0,1,.58-.46,2.32,2.32,0,0,1,3.75,1.8c.08,1.57,0,3.15,0,4.77h-2.54c0-1.21,0-2.37,0-3.53,0-.65,0-1.36-.87-1.36s-1,.71-1,1.41v3.46h-2.6c0-1.16,0-2.35,0-3.54,0-.58,0-1.29-.77-1.33s-1.05.66-1.06,1.35c0,1.16,0,2.33,0,3.54h-2.53v-6.68c2-.25,2.15-.22,2.4.44a7.59,7.59,0,0,1,2.26-.68A7.93,7.93,0,0,1,979.5,541.26Z" transform="translate(-895.29 -530.68)"/><path class="cls-5" d="M958.6,542.73c.94-2.14,2.62-2.46,4.68-2L961,542.87l2.63,4.61c-1.14-.08-2.26.16-2.94-.28s-.89-1.56-1.31-2.38c-1.33.44-.9,1.61-1,2.56h-2.56v-9.2h2.59v4.38Z" transform="translate(-895.29 -530.68)"/><path class="cls-4" d="M988.06,541.14c2.18-1.52,4.22-.7,4.7,1.93a6.15,6.15,0,0,1,0,2.14,2.76,2.76,0,0,1-4,2.18c-.19-.07-.37-.17-.68-.31v2.75h-2.59v-9.26C986.35,540.84,987.36,540,988.06,541.14Zm2.21,3c0-1.42-.42-2.21-1.13-2.09-1.09.19-1.07,1.12-1.11,1.93,0,1.19.47,2.06,1.18,2C990.35,545.79,990.18,544.82,990.27,544.15Z" transform="translate(-895.29 -530.68)"/><path class="cls-6" d="M1005.64,544.72h-5c.23,1.08,1,1.63,1.71,1.12,1.07-.76,2.09-.25,3.15-.27-.79,2.28-3.8,2.37-5.53,1.78-1.57-.53-2.39-2.55-1.9-4.42s2.39-2.88,4.79-2.43C1004.91,540.89,1005.87,542.3,1005.64,544.72Zm-2.58-1.25c-.07-.91-.43-1.45-1.28-1.42s-1.12.64-1.2,1.42Z" transform="translate(-895.29 -530.68)"/><path class="cls-6" d="M967.52,547.63a3.63,3.63,0,1,1-.06-7.24c2.4,0,3.95,1.41,3.93,3.63A3.56,3.56,0,0,1,967.52,547.63Zm1.23-3.66h0a3.44,3.44,0,0,0,0-.72c-.16-.63-.47-1.32-1.18-1.15a2.25,2.25,0,0,0-1.21,1.15,2.56,2.56,0,0,0-.05,1.41c.1.69.41,1.29,1.22,1.3s1.13-.65,1.24-1.37A3.2,3.2,0,0,0,968.75,544Z" transform="translate(-895.29 -530.68)"/><path class="cls-7" d="M1011.38,546l.16,1.45-.75.15c-2.52.43-3.35-.27-3.35-2.84,0-.69,0-1.37,0-2.15l-.89-.16v-1.76l.85-.09.07-1.17,2.54-1.24v2.4l1.4.1v1.78l-1.36.08a17.08,17.08,0,0,0,.05,2.78c0,.35.66.61,1,.91Z" transform="translate(-895.29 -530.68)"/><path class="cls-7" d="M1017.18,546l.15,1.5a20.41,20.41,0,0,1-2.44.1,1.57,1.57,0,0,1-1.58-1.59c0-1.13,0-2.27,0-3.45l-1-.16v-1.73l.87-.12c-.17-2,1.67-1.58,2.65-2.52v2.57h1.37v1.81l-1.38.1a19.21,19.21,0,0,0,0,2.84c0,.31.66.54,1,.8Z" transform="translate(-895.29 -530.68)"/><path class="cls-8" d="M996.54,547.39h-2.49v-9.23h2.49Z" transform="translate(-895.29 -530.68)"/><path class="cls-9" d="M989.21,546c-.71.1-1.23-.77-1.18-2,0-.81,0-1.74,1.11-1.93" transform="translate(-895.29 -530.68)"/><path class="cls-10" d="M1003.06,543.47h-2.48" transform="translate(-895.29 -530.68)"/><path class="cls-9" d="M968.75,544a3.2,3.2,0,0,1,0,.62c-.11.72-.37,1.37-1.24,1.37s-1.12-.61-1.22-1.3a2.56,2.56,0,0,1,.05-1.41,2.25,2.25,0,0,1,1.21-1.15c.71-.17,1,.52,1.18,1.15" transform="translate(-895.29 -530.68)"/></svg>